<svg width="32" height="33" viewBox="0 0 32 33" fill="none" xmlns="http://www.w3.org/2000/svg">
<path d="M18.7808 30.6117L16.9785 32.0278V0.487793L18.7808 1.84288V30.6117Z" fill="#808285"/>
<path d="M22.0874 27.7389L20.2852 28.8772V3.63843L22.0874 4.72927V27.7389Z" fill="#6D6E71"/>
<path d="M25.3931 24.5276L23.5908 25.3407V7.17554L25.3931 7.95472V24.5276Z" fill="#58595B"/>
<path d="M28.6929 22.4878L26.8906 23.0569V10.4409L28.6929 10.983V22.4878Z" fill="#58595B"/>
<path d="M31.9996 20.0351L30.1973 20.3197V14.0117L31.9996 14.2827V20.0351Z" fill="#414042"/>
<path d="M13.2188 30.1171L15.021 31.54V0L13.2188 1.35509V30.1171Z" fill="#939598"/>
<path d="M9.91211 27.2511L11.7212 28.3894V3.15063L9.91211 4.24148V27.2511Z" fill="#BCBEC0"/>
<path d="M6.6123 24.0398L8.41458 24.8529V6.68774L6.6123 7.46692V24.0398Z" fill="#D1D3D4"/>
<path d="M3.30664 22L5.10893 22.5691V9.95312L3.30664 10.4952V22Z" fill="#E6E7E8"/>
<path d="M0 19.5473L1.80229 19.8319V13.5239L0 13.7949V19.5473Z" fill="white"/>
</svg>
