<?xml version="1.0" standalone="no"?>
<!DOCTYPE svg PUBLIC "-//W3C//DTD SVG 20010904//EN"
 "http://www.w3.org/TR/2001/REC-SVG-20010904/DTD/svg10.dtd">
<svg version="1.0" xmlns="http://www.w3.org/2000/svg"
 width="500.000000pt" height="500.000000pt" viewBox="0 0 500.000000 500.000000"
 preserveAspectRatio="xMidYMid meet">

<g transform="translate(0.000000,500.000000) scale(0.100000,-0.100000)"
fill="#000000" stroke="none">
<path d="M0 2500 l0 -2500 2500 0 2500 0 0 2500 0 2500 -2500 0 -2500 0 0
-2500z m2388 -843 l-3 -874 -95 76 -95 77 -3 1592 -2 1591 97 74 98 74 3 -868
c1 -477 1 -1261 0 -1742z m330 2474 l82 -62 0 -1597 -1 -1597 -42 -31 c-23
-17 -66 -50 -94 -74 l-53 -42 0 1742 c0 1392 3 1741 13 1733 6 -5 49 -38 95
-72z m-698 -1606 l0 -1394 -92 58 -93 58 -3 1280 -2 1280 92 56 c51 31 94 56
96 57 1 0 2 -628 2 -1395z m-360 0 c0 -553 -2 -1005 -4 -1005 -3 0 -48 20
-100 44 l-96 45 0 919 0 919 93 40 c50 23 95 42 100 42 4 1 7 -451 7 -1004z
m-370 -54 l0 -699 -100 31 -100 30 0 638 0 638 93 30 c50 16 95 30 100 30 4 1
7 -313 7 -698z m-360 -46 l0 -345 -27 1 c-16 0 -62 6 -103 12 l-75 12 0 320 0
320 70 11 c39 7 85 12 103 13 l32 1 0 -345z"/>
</g>
</svg>
