<svg width="32" height="32" viewBox="0 0 32 32" fill="none" xmlns="http://www.w3.org/2000/svg">
<path d="M18.7808 30.5851L16.9785 32V0.487305L18.7808 1.84122V30.5851Z" fill="#808285"/>
<path d="M22.0874 27.7149L20.2852 28.8522V3.63525L22.0874 4.72516V27.7149Z" fill="#6D6E71"/>
<path d="M25.3931 24.5065L23.5908 25.3188V7.16943L25.3931 7.94794V24.5065Z" fill="#58595B"/>
<path d="M28.6929 22.4683L26.8906 23.037V10.4319L28.6929 10.9735V22.4683Z" fill="#58595B"/>
<path d="M31.9996 20.0177L30.1973 20.302V13.9995L31.9996 14.2703V20.0177Z" fill="#414042"/>
<path d="M13.2188 30.0911L15.021 31.5127V0L13.2188 1.35392V30.0911Z" fill="#939598"/>
<path d="M9.91211 27.2276L11.7212 28.3649V3.14795L9.91211 4.23785V27.2276Z" fill="#BCBEC0"/>
<path d="M6.6123 24.0189L8.41458 24.8313V6.68188L6.6123 7.46039V24.0189Z" fill="#D1D3D4"/>
<path d="M3.30664 21.981L5.10893 22.5497V9.94458L3.30664 10.4862V21.981Z" fill="#E6E7E8"/>
<path d="M0 19.5304L1.80229 19.8147V13.5122L0 13.783V19.5304Z" fill="white"/>
</svg>
